<svg xmlns:svg="http://www.w3.org/2000/svg" xmlns="http://www.w3.org/2000/svg" version="1.1" width="600" height="600"><g transform="translate(-470.5769,-153.2138)"><g transform="matrix(6,0,0,6,6140.5769,1413.2138)"><circle cx="-895" cy="-160" r="50" fill="#cac5c0"/></g><path d="m608.6 467.8c0-58.7 12.4-112.9 37.1-162.4 30.7-61.4 72.7-92.1 126.1-92.1 52.8 0 94 26.2 123.6 78.4 24.8 43.1 37.1 93.2 37.1 150.3 0 59.3-12.4 112.9-37.1 160.8-30.2 60.3-72.2 90.5-126.1 90.5-51.2 0-91.8-25.8-122-77.6C621.5 571.5 608.6 522.2 608.6 467.8zm67.9-26.7c0 77.6 11.6 137.9 34.8 181 16.1 30.1 36.9 45.2 62.2 45.2 60.9 0 91.3-63 91.3-189.1 0-55.5-4.9-102.4-14.5-140.6-16.7-63-45-94.6-84.9-94.6-59.3 0-88.9 60.9-88.9 182.7v15.4z" fill="#0d0f0f"/></g></svg>