<svg xmlns:svg="http://www.w3.org/2000/svg" xmlns="http://www.w3.org/2000/svg" version="1.1" width="600" height="600"><g transform="translate(-296.2912,166.78621)"><g transform="matrix(6,0,0,6,5966.2912,463.22578)"><circle cx="-895" cy="-55" r="50" fill="#cac5c0"/></g><path d="M508.1-55V247.7c0 36 15.4 54 46.2 54h7.8v20.5H400.9v-20.5h10.4c29.6 0 44.4-18 44.4-54V49.2c0-36.5-12.9-54.7-38.8-54.7h-16v-20.5h6.1c31.4 0 59.8-9.6 85.1-28.9l16 0 0 0zm58.6 200c0-47.1 9.9-90.5 29.6-130 24.9-49.2 58.8-73.8 101.9-73.8 41.6 0 74.5 21 98.9 63.1 19.8 34.5 29.7 74.3 29.7 119.4 0 47.2-9.9 90.2-29.7 129.3-24.8 48.2-58.5 72.2-101.1 72.2-41.1 0-73.8-20.8-98.1-62.4-20.8-35-31.2-74.3-31.2-117.9zm54.7-22.1c0 40.1 4.3 76.1 12.9 108 13.2 49.2 34.7 73.8 64.6 73.8 48.7 0 73-50.7 73-152.1 0-125.2-26.4-187.8-79.1-187.8-47.6 0-71.5 48.6-71.5 146l0 12.2 0 0z" fill="#0d0f0f"/></g></svg>
