<svg xmlns:svg="http://www.w3.org/2000/svg" xmlns="http://www.w3.org/2000/svg" version="1.1" width="600" height="600"><g transform="translate(-130.5769,306.78621)"><g transform="matrix(6,0,0,6,5170.5769,323.22578)"><circle cx="-790" cy="-55" r="50" fill="#cac5c0"/></g><path d="M369.6-196.9V108.2c0 36.3 15.1 54.4 45.2 54.4h7.7v20.7H260V162.6h10.7c30.7 0 46-18.1 46-54.4V-91.9c0-36.8-13-55.2-39.1-55.2h-16.1v-20.7h6.1c31.7 0 60.3-9.7 85.8-29.1l16.1 0 0 0zm194.7 0V108.2c0 36.3 15.1 54.4 45.2 54.4h7.7v20.7H454.6V162.6h10.7c30.7 0 46-18.1 46-54.4V-91.9c0-36.8-13-55.2-39.1-55.2h-16.1v-20.7h6.1c31.7 0 60.3-9.7 85.9-29.1l16.1 0 0 0z" fill="#0d0f0f"/></g></svg>
