<svg xmlns:svg="http://www.w3.org/2000/svg" xmlns="http://www.w3.org/2000/svg" version="1.1" width="600" height="600"><g transform="translate(-213.4341,-44.642357)"><g transform="matrix(6,0,0,6,4623.4341,674.65435)"><circle cx="-685" cy="-55" r="50" fill="#cac5c0"/></g><path d="m427.2 159.9v295.1c0 35.2 14.6 52.9 43.7 52.9h7.7v20.7H321.4v-20.7h9.2c29.6 0 44.4-17.6 44.4-52.9V261.1c0-35.7-12.3-53.6-36.8-53.6h-16.1v-19.9h6.1c30.7 0 58.3-9.2 82.8-27.6l16.1 0 0 0zm305.8 278.2-26.8 91.2h-224.6v-19.9c10.8-12.3 34.5-36.8 71.3-73.6 22-22 43.9-45.5 65.9-70.5 10.7-12.3 19.1-22.5 25.3-30.7 12.8-19.4 19.1-38.8 19.1-58.2 0-19.4-5.9-36.6-17.6-51.4-11.8-14.8-27.4-22.2-46.7-22.2-40.4 0-72.1 27.6-95.1 82.8l-19.9-7.7c27.6-76.6 70.5-115 128.8-115 28.6 0 53.1 9.7 73.6 29.1 20.4 19.4 30.7 43.7 30.7 72.8 0 37.3-21.2 73.6-63.6 108.8l-43.7 35.2c-28.1 23.5-51.4 45.8-69.8 66.7-1.5 1.6-4.1 4.4-7.6 8.5h117.3c17.9 0 31.2-3.3 39.9-10 8.7-6.6 16.6-18.6 23.7-36h19.9z" fill="#0d0f0f"/></g></svg>
