<svg xmlns:svg="http://www.w3.org/2000/svg" xmlns="http://www.w3.org/2000/svg" version="1.1" width="600" height="600"><g transform="translate(92.2802,-93.213787)"><g transform="matrix(6,0,0,6,3687.7198,723.22578)"><circle cx="-580" cy="-55" r="50" fill="#cac5c0"/></g><path d="m135.5 212v291.3c0 34.2 14.6 51.3 43.7 51.3h6.9v19.9H31.3v-19.9h10c29.6 0 44.4-17.1 44.4-51.3V312.4c0-35.2-12.5-52.9-37.5-52.9H32.8v-19.9h6.1c30.1 0 57.2-9.2 81.2-27.6h15.3zm130.3 193.1-9.2-16.9 6.9-3.8c23-14.3 44.3-28.7 64-43.3 19.6-14.6 29.5-31 29.5-49.4 0-12.8-4.9-23.4-14.6-31.8-9.7-8.4-20.5-12.7-32.2-12.7-29.7 0-60.8 17.9-93.5 53.7l-15.3-11.5c33.7-51.1 75.1-76.7 124.2-76.7 21.5 0 39.6 5.4 54.4 16.1 17.4 11.8 26.1 27.9 26.1 48.3 0 14.3-6.1 28.4-18.4 42.1-7.2 7.7-19.4 18.1-36.8 31.4l-6.9 6.1c3.1-0.5 6.9-0.8 11.5-0.8 22.5 0 40.9 8.6 55.2 25.7 14.3 17.1 21.5 36.7 21.5 58.6 0 38.8-16.3 71-49.1 96.6-29.6 24.5-64.1 36.8-103.4 36.8-36.3 0-64.6-7.7-85.1-23l10.7-15.3c24 11.2 46 16.9 65.9 16.9 28.6 0 54.2-9.4 76.7-28.4 22.5-18.9 33.7-42.4 33.7-70.5 0-18.9-5.6-35-16.8-48.3-11.3-13.3-26.1-19.9-44.5-19.9-16.3 0-34.5 6.7-54.4 19.9z" fill="#0d0f0f"/></g></svg>
