<svg xmlns:svg="http://www.w3.org/2000/svg" xmlns="http://www.w3.org/2000/svg" version="1.1" width="600" height="600"><g transform="translate(-204.8627,26.786213)"><g transform="matrix(6,0,0,6,3354.8627,603.22578)"><circle cx="-475" cy="-55" r="50" fill="#cac5c0"/></g><path d="M422.7 90.1V384.4c0 34.7 14.6 52.1 43.7 52.1h6.9V456.4H316.9v-19.9h10c29.6 0 44.4-17.4 44.4-52.1v-193.1c0-35.3-12.5-52.9-37.6-52.9h-15.3v-19.9h6.1c30.1 0 57.5-9.4 82-28.3l16.1 0 0 0zM681 352.2v30.7c0 34.2 12 51.4 36 51.4h9.9v19.9H580.6v-19.9h11.5c24 0 36-16.9 36-50.6V352.2H480.9V321.5L636.5 94.6h44.5V326.1h3.8c14.8 0 25.8-11.7 32.9-35.2h18.4l-9.2 61.3-46 0 0 0zM640.4 321.5V128.4L510.1 321.5h130.3z" fill="#0d0f0f"/></g></svg>
