<svg xmlns:svg="http://www.w3.org/2000/svg" xmlns="http://www.w3.org/2000/svg" version="1.1" width="600" height="600"><g transform="translate(-173.4341,195.35763)"><g transform="matrix(6,0,0,6,2693.4341,434.64237)"><path d="M-320-55C-320-27.4-342.4-5-370-5-397.6-5-420-27.4-420-55c0-27.6 22.4-50 50-50 27.6 0 50 22.4 50 50z" fill="#cac5c0"/></g><path d="M381.5-86.6V218.5c0 36.3 15.1 54.4 45.2 54.4h7.7v20.7h-162.5v-20.7h10.7c30.7 0 46-18.2 46-54.4V18.4c0-36.8-13-55.2-39.1-55.2h-16.1v-20.7h6.1c31.7 0 60.3-9.7 85.8-29.1h16.1zm107.3 7.6h138.7c17.9 0 28.6-2 32.2-6.1h19.9l-11.5 52.1h-169.4l-16.1 75.1c24-9.7 45.5-14.6 64.4-14.6 36.8 0 67.8 12.3 93.1 36.8 25.3 24.5 37.9 55.2 37.9 92 0 42.9-16.3 77.4-49 103.5-30.7 24-67.7 36-111.1 36-25.5 0-50.6-3.8-75.1-11.5l7.6-19.1c20.4 5.6 38.6 8.4 54.4 8.4 31.7 0 59.4-10.5 83.2-31.4 23.8-21 35.6-47 35.6-78.2 0-27.1-8.8-49.3-26.4-66.7-17.6-17.4-39.7-26.1-66.3-26.1-25 0-48.3 8.7-69.8 26.1L448.2 95.1 488.8-78.9z" fill="#0d0f0f"/></g></svg>
