<svg xmlns:svg="http://www.w3.org/2000/svg" xmlns="http://www.w3.org/2000/svg" version="1.1" width="600" height="600"><g transform="translate(-36.2912,55.357643)"><g transform="matrix(6,0,0,6,1926.2912,574.65435)"><circle cx="-265" cy="-55" r="50" fill="#cac5c0"/></g><path d="M242.1 54.6V359.6c0 36.3 15.1 54.4 45.2 54.4h7.7v20.7H132.5v-20.7h10.7c30.7 0 46-18.1 46-54.4V159.6c0-36.8-13-55.2-39.1-55.2H134.1V83.7h6.1c31.7 0 60.3-9.7 85.8-29.1h16.1zM362.5 219.3c28.1-26.5 56.4-39.9 85.1-39.9 30.7 0 55.4 12.3 74.3 36.8 17.4 22.5 26 49.8 26 82 0 34.7-10.2 65.2-30.7 91.2-22.5 29.1-50.6 43.7-84.3 43.7-39.9 0-72-17.4-96.6-52.1-21.5-30.7-32.2-66.9-32.2-108.8 0-44.9 12.3-86.2 36.8-123.8 24.5-37.5 57.5-64.2 98.9-80.1 23-8.7 47.5-13 73.6-13v19.9c-55.2 2.6-96.3 24.6-123.4 65.9-13.8 21.5-23 47.5-27.6 78.2zm-3.8 37.6c-0.5 7.6-0.8 15.3-0.8 23 0 29.6 5.1 57 15.4 82 13.3 32.7 32.7 49 58.2 49 22 0 38.6-11.2 49.8-33.7 8.2-17.4 12.3-38.6 12.3-63.6 0-26-3.8-48.5-11.5-67.4-11.3-25.6-28.4-38.3-51.4-38.3-28.1 0-52.1 16.3-72 49.1z" fill="#0d0f0f"/></g></svg>
