<svg xmlns:svg="http://www.w3.org/2000/svg" xmlns="http://www.w3.org/2000/svg" version="1.1" width="600" height="600"><g transform="translate(-342.0055,1.0719234)"><g transform="matrix(6,0,0,6,1602.0055,628.94007)"><circle cx="-160" cy="-55" r="50" fill="#cac5c0"/></g><path d="m544.3 113.9v295.8c0 35.3 14.6 52.9 43.7 52.9h6.9v19.9H437.7v-19.9h10.7c29.6 0 44.5-17.6 44.5-52.9V215.8c0-35.7-12.8-53.6-38.3-53.6h-15.4v-19.9h6.1c30.7 0 58.3-9.5 82.8-28.4l16.1 0 0 0zm196.2 371h-53.7v-6.1c0-34.2 10.7-77.4 32.2-129.5 32.7-77.7 62.9-137.5 90.4-179.4l3.1-5.4h-125.7c-18.4 0-32.3 3.8-41.8 11.5-9.4 7.7-16.8 20.5-21.9 38.3H602.5L625.5 113.1h13.8c7.6 3.6 21.5 5.4 41.4 5.4h165.5v29.1c-6.1 8.7-13.8 22.5-23 41.4-17.9 34.8-34.2 75.1-49.1 121.1-22 68.5-33.2 126.8-33.7 174.8z" fill="#0d0f0f"/></g></svg>
