<svg xmlns:svg="http://www.w3.org/2000/svg" xmlns="http://www.w3.org/2000/svg" version="1.1" width="600" height="600"><g transform="translate(-187.71982,12.500493)"><g transform="matrix(6,0,0,6,817.71982,617.5115)"><circle cx="-55" cy="-55" r="50" fill="#cac5c0"/></g><path d="M403.6 102.8V399.4c0 35.3 14.6 52.9 43.7 52.9h7.7V472.2H297v-19.9h10c30.1 0 45.2-17.6 45.2-52.9V204.7c0-35.8-12.8-53.6-38.3-53.6h-15.3v-19.9h6.1c30.7 0 58.3-9.4 82.8-28.4h16.1v0zm135.7 182.4-7.7-6.1c-24-16.3-39.9-29.4-47.5-39.1-9.2-12.8-13.8-27.6-13.8-44.5 0-28.1 12-51.1 36-69 21.5-16.8 47-25.3 76.7-25.3 27.6 0 52.1 7.2 73.6 21.5 23.5 16.4 35.3 38.1 35.3 65.1 0 32.7-22.5 59-67.5 79 51.6 25 77.4 60 77.4 105 0 32.2-12.5 57.7-37.6 76.6-21.4 16.9-48.8 25.3-82 25.3-31.7 0-58.7-7.9-81.2-23.8-26-17.9-39.1-41.6-39.1-71.3 0-30.2 14-54.7 42.2-73.6 7.2-5.1 18.9-11.7 35.2-19.9zm21.5 8.5c-37.3 17.4-55.9 44.4-55.9 81.2 0 23.5 7.7 42.5 23 57.1 15.4 14.6 34.5 21.8 57.5 21.8 21.5 0 39.6-5.7 54.4-17.2 14.8-11.5 22.2-27.4 22.2-47.9 0-31.2-19.9-56.2-59.8-75.1L560.7 293.7zm42.2-36.8c33.2-14.8 49.8-36.8 49.8-65.9 0-19.9-7-36-21-48.3-14.1-12.3-31.3-18.4-51.7-18.4-16.9 0-31.9 4.8-45.2 14.5-13.3 9.7-19.9 23-19.9 39.9 0 20.5 9.4 36.8 28.3 49.1 4.1 2.6 21 10.7 50.6 24.5l9.2 4.6z" fill="#0d0f0f"/></g></svg>
