<svg xmlns:svg="http://www.w3.org/2000/svg" xmlns="http://www.w3.org/2000/svg" version="1.1" width="600" height="600"><g transform="translate(80.851611,161.07192)"><g transform="matrix(6,0,0,6,-80.851611,468.94007)"><circle cx="50" cy="-55" r="50" fill="#cac5c0"/></g><path d="M142.1-49.6V251.6c0 35.8 15.1 53.6 45.2 53.6h7.7v20.7H34.1V305.2h10.7c30.2 0 45.2-17.9 45.2-53.6V53.9c0-36.3-12.8-54.4-38.3-54.4H35.6V-21.2h6.1c31.2 0 59.5-9.5 85.1-28.4l15.3 0 0 0zM386.6 165c-28.1 26.6-56.2 39.9-84.3 39.9-30.7 0-55.5-12.5-74.4-37.6-16.9-22-25.3-48.8-25.3-80.5 0-34.2 9.9-64.9 29.9-92 22.5-29.1 50.3-43.7 83.6-43.7 40.4 0 72.3 17.4 95.8 52.1 22 31.2 33 67.7 33 109.6 0 60.3-19.8 111-59.4 152.2-39.6 41.1-89.3 62-149.1 62.5v-19.9c18.4-1 33-3.1 43.7-6.1 60.8-18.4 96.3-63.9 106.5-136.4zm3.8-37.6c0.5-8.1 0.8-15.8 0.8-23 0-29.6-5.1-56.7-15.3-81.2-13.8-32.2-33.2-48.3-58.3-48.3-21.9 0-38.1 11-48.3 33-8.7 17.9-13 38.8-13 62.8 0 26 4.1 48.6 12.3 67.4 10.7 25 27.6 37.6 50.6 37.6 27.6 0 51.4-16.1 71.3-48.3z" fill="#0d0f0f"/></g></svg>
