<svg xmlns:svg="http://www.w3.org/2000/svg" xmlns="http://www.w3.org/2000/svg" version="1.1" width="600" height="600"><g transform="translate(-330.5769,32.500493)"><g transform="matrix(6,0,0,6,4740.5769,1227.5115)"><circle cx="-685" cy="-160" r="50" fill="#cac5c0"/></g><path d="M795.2 388.1 759.9 507.5H465.9V482c14.3-15.9 45.6-48 93.9-96.3 29.1-29.1 57.9-59.8 86.4-92.2 14.3-15.9 25.3-29.7 32.9-41.2 17-24.7 25.5-49.9 25.5-75.7 0-25.2-7.8-47.5-23.4-66.7-15.6-19.2-35.8-28.8-60.5-28.8-53.2 0-94.9 36-125.1 107.9l-26.4-9.9C504.9 78 561.1 27.5 638 27.5c37.9 0 70.1 12.9 96.7 38.7 26.6 25.8 39.9 57.6 39.9 95.5 0 48.3-27.7 95.5-83.1 141.6l-57.6 47.7c-36.8 30.8-67.3 59.6-91.4 86.5-1.7 1.6-5 5.5-9.9 11.5h153.1c23.6 0 41.4-4.7 53.5-14 10.4-8.2 20.6-23.9 30.5-46.9h25.5z" fill="#0d0f0f"/></g></svg>