<svg xmlns:svg="http://www.w3.org/2000/svg" xmlns="http://www.w3.org/2000/svg" version="1.1" width="600" height="600"><g transform="translate(-339.1483,169.64334)"><g transform="matrix(6,0,0,6,6009.1483,-169.63135)"><circle cx="-895" cy="50" r="50" fill="#cac5c0"/></g><path d="M658.6 210 631.8 299.6H411v-18.4c10.7-12.2 34.5-36.5 71.3-72.8 21.5-22 42.9-45 64.4-69 11.2-12.3 19.4-22.7 24.5-31.4 13.3-18.4 19.9-37.5 19.9-57.5 0-18.4-6-34.9-18-49.4-12-14.6-27.2-21.8-45.6-21.8-39.9 0-71 27.1-93.5 81.2l-20.7-7.7c27.1-76.1 69.5-114.2 127.2-114.2 28.6 0 53 9.7 73.2 29.1 20.2 19.4 30.3 43.4 30.3 72 0 36.3-21.2 71.8-63.6 106.5l-42.9 36c-27.6 23.5-50.3 45.2-68.2 65.1-1.5 1-4.1 4.1-7.7 9.2h115c17.9 0 31.4-3.9 40.6-11.5 7.7-6.1 15.3-17.9 23-35.3h18.4v0zm-3.1-80.5c0-44.4 9.2-85.6 27.6-123.4 24-47 56.4-70.5 97.3-70.5 39.3 0 70.8 20.2 94.3 60.5 18.4 32.7 27.6 70.5 27.6 113.4 0 45-9.2 85.9-27.6 122.7-24 46-56.2 68.9-96.6 68.9-38.8 0-70-19.6-93.5-59-19.4-33.2-29.1-70.8-29.1-112.7zm52.1-20.7c0 38.3 4.1 72.6 12.3 102.7 12.2 47 32.7 70.5 61.3 70.5 46.5 0 69.8-48.3 69.8-144.9 0-119.6-25.3-179.3-75.9-179.3-45 0-67.5 46.5-67.5 139.5l0 11.5 0 0z" fill="#0d0f0f"/></g></svg>
