<svg xmlns:svg="http://www.w3.org/2000/svg" xmlns="http://www.w3.org/2000/svg" version="1.1" width="600" height="600"><style>.s0{fill:#0d0f0f;}</style><g transform="translate(-484.86267,155.35853)"><path d="m997-67.5c54.3 54.3 87.9 129.3 87.9 212.2 0 165.7-134.3 300-300 300-82.8 0-157.8-33.6-212.1-87.9" fill="#bab1ab"/><path d="m572.7 356.8c-54.3-54.3-87.9-129.3-87.9-212.1 0-165.7 134.3-300 300-300 82.8 0 157.8 33.6 212.1 87.8" fill="#cac5c0"/><path d="M746.7 94.2 729.5 152.2H586.6v-12.4c6.9-7.7 22.2-23.3 45.6-46.8 14.1-14.2 28.2-29.1 42-44.9 6.9-7.7 12.3-14.4 16-20 8.3-12 12.4-24.3 12.4-36.8 0-12.3-3.8-23.1-11.4-32.4-7.6-9.4-17.4-14-29.4-14-25.9 0-46.2 17.5-60.8 52.5L588.2-7.5c17.3-49.1 44.7-73.6 82.1-73.6 18.4 0 34.1 6.3 47 18.8 13 12.6 19.4 28 19.4 46.4 0 23.5-13.5 46.4-40.4 68.9l-28 23.2c-17.9 15-32.7 29-44.4 42-0.8 0.8-2.4 2.7-4.8 5.6h74.5c11.5 0 20.2-2.3 26-6.8 5.1-4 10-11.6 14.8-22.8h12.4l0 0zM1022.6 240.6c0 16.2-5.9 27.3-17.7 33.2-3.4 1.7-14.2 4.1-32.4 7-11.8 2-17.7 6.5-17.7 13.6v29.8c0 1.3 0.4 5.1 1.1 11.4l1.1 11.8c0 3.7-0.9 9.7-2.6 18-4.7 1-10.1 2.1-16.2 3.3-2-7.4-2.9-12.4-2.9-15.1 0-1.2 0.3-3.1 0.9-5.5 0.6-2.4 0.9-4.3 0.9-5.5 0-1.7-1.5-6.5-4.6-14.4h-5.7c-0.8 1.2-1 2.8-0.8 4.8 1 4.2 1.3 7.7 1.1 10.7-4.2 2.9-9.9 6.9-17.3 11.8-1.7-0.5-2.3-0.7-1.8-0.7V328.6c-0.5-1.2-1.7-1.7-3.7-1.5h-4.4l-4.4 34.6c-3.4 0.2-7.6 0.2-12.5 0-1.7-8.1-4.8-20.1-9.2-36.1h-3c-2.7 8.6-4.2 13.3-4.4 14 0 1 0.3 2.9 0.9 5.7 0.6 2.8 0.9 4.7 0.9 5.7 0 0.7-0.3 2.6-0.7 5.5l-1.1 8.9c-0.5 0.5-1.1 0.7-1.8 0.7-7.4 0-12.3-1.8-14.7-5.5-2.5-3.7-3.5-8.9-3-15.5l3-44.2c0-0.7 0.2-1.7 0.7-3 0.5-1.2 0.7-2.1 0.7-2.6 0-2-2.1-5.9-6.3-11.8-0.7-0.2-4.5-1.1-11.4-2.6-4.2-1-12.4-2.7-24.7-5.1-17-3.2-25.4-16.8-25.4-40.9 0-35.9 14.7-65.7 44.2-89.5 1.2 6.6 3.3 15.5 6.3 26.5 2.2 0.5 7 1.6 14.4 3.3 1.5 0.5 9 3.2 22.5 8.1-6.9-4.2-15.8-10.9-26.9-20.3-4.2-4.9-6.3-13.1-6.3-24.7 0-2.7 4.7-5.9 14-9.6 8.3-3.4 14.6-5.4 18.8-5.9 13.3-1.7 23.4-2.6 30.6-2.6 30.7 0 55.5 7.9 74.4 23.6-6.1 7.1-16.7 14.7-31.7 22.8 5.9 0.2 14.5-2.1 25.8-7 11.3-4.9 16.1-7.4 14.4-7.4 2 0 5.9 3.9 11.8 11.8 4.4 5.9 8 11.2 10.7 15.8 7.9 14 13.1 29.1 15.8 45.3 0 5.7 0.1 9.7 0.4 12.2l0 2.9 0 0zm-141.1 6.6c0-10.6-4.6-20.6-13.8-30-9.2-9.5-19.1-14.2-29.7-14.2-9.3 0-17.5 4-24.7 11.9-7.1 7.9-10.7 16.7-10.7 26.3 0 8.4 4 13.9 12.2 16.3 5.2 1.5 12.4 2.4 21.7 2.6h20.3c16.5 0.2 24.7-4.1 24.7-12.9zm40.2 45.7v-11.4c-1.7-3.2-3.4-6.5-5.1-10-1.5-4.9-4.2-11.8-8.1-20.6l-4.1 43.1c0 3.5-0.7 5.2-2.2 5.2-1 0-1.7-0.2-2.2-0.7-1.7-26-2.6-37.3-2.6-33.9v-12.9c-0.5-0.8-1.1-1.1-1.8-1.1-8.3 8.6-12.5 22.5-12.5 41.6 0 10.6 1 17.1 2.9 19.5 2-0.5 4.2-1.4 6.6-2.6 1-0.5 3.8-0.7 8.5-0.7 4.7 0 10.3 1.5 16.9 4.4 2.5 0 3.7-6.6 3.7-19.9zm83.3-51.3c0-9.9-3.7-18.7-11.1-26.5-7.4-7.8-15.8-11.7-25.4-11.7-10.3 0-20 4.7-28.9 14.2-9 9.5-13.5 19.3-13.5 29.7 0 8.6 4.2 12.9 12.5 12.9h42.4c16-0.2 24-6.4 24-18.5z" fill="#0d0f0f"/></g></svg>
