<svg xmlns:svg="http://www.w3.org/2000/svg" xmlns="http://www.w3.org/2000/svg" version="1.1" width="600" height="600"><style>.s0{fill:#0d0f0f;}</style><g transform="translate(-707.7198,121.0728)"><path d="m1219.8-33.3c54.3 54.3 87.9 129.3 87.9 212.2 0 165.7-134.3 300-300 300-82.8 0-157.8-33.6-212.1-87.9" fill="#a3c095"/><path d="m795.6 391.1c-54.3-54.3-87.9-129.3-87.9-212.1 0-165.7 134.3-300 300-300 82.8 0 157.8 33.6 212.1 87.8" fill="#cac5c0"/><path d="m969.6 128.5-17.2 58.1H809.5v-12.4c6.9-7.7 22.2-23.3 45.6-46.8 14.1-14.2 28.2-29.1 42-44.9 6.9-7.7 12.3-14.4 16-20 8.3-12 12.4-24.3 12.4-36.8 0-12.3-3.8-23.1-11.4-32.4-7.6-9.4-17.4-14-29.4-14-25.9 0-46.2 17.5-60.8 52.5l-12.8-4.8c17.3-49.1 44.7-73.6 82.1-73.6 18.4 0 34.1 6.3 47 18.8 13 12.6 19.4 28 19.4 46.4 0 23.5-13.5 46.4-40.4 68.9L891.2 110.5c-17.9 15-32.7 29-44.4 42-0.8 0.8-2.4 2.7-4.8 5.6h74.5c11.5 0 20.2-2.3 26-6.8 5.1-4 10-11.6 14.8-22.8h12.4l0 0zM1244.8 284.6c0 4.5-1.8 8.6-5.3 12.3-3.5 3.6-7.5 5.4-12.1 5.4-7.2 0-12.6-3.4-16-10.2l-16-0.7c-3.4 0-10.1 1.5-20.1 4.4-10.7 2.9-16.8 5.3-18.4 7.1-2.5 2.7-4.5 9.1-6.1 19.1-1.4 8.2-2 14.2-2 18 0 6.1 1 10.6 2.9 13.4 1.9 2.8 5.9 5.2 11.9 7.1 6 1.9 9.7 3 11.1 3.2 0.9 0 2.4-0.1 4.4-0.3h4.1c2.9 0 6 0.5 9.2 1.4 4.5 1.4 6.5 3.2 5.8 5.4-3.2-0.4-8.7 0.2-16.7 2l9.5 4.8c0 2.7-3.9 4.1-11.6 4.1-2.1 0-4.8-0.4-8.3-1.4-3.5-0.9-5.8-1.4-7-1.4h-4.4c-0.2 2.3-0.9 5.7-2 10.2-3.9-0.2-8.4-2.5-13.6-6.8-5.2-4.3-8.5-6.5-9.9-6.5-1.4 0-3.3 2.2-5.8 6.5-2.5 4.3-3.7 7.2-3.7 8.9-2.9-1.6-5.4-4.5-7.5-8.9-0.9-3-1.9-5.9-3.1-8.9-2.3 0.2-6.5 5-12.6 14.3h-1.7c-0.5-0.7-2.2-5.4-5.1-14.3-7-2.3-13.6-3.4-19.7-3.4-2.9 0-7.5 0.7-13.6 2l-9.5-0.7c1.4-1.4 5.3-4 11.9-7.8 7.7-4.5 13.6-6.8 17.7-6.8 0.7 0 1.6 0.1 2.7 0.4 1.1 0.2 2 0.3 2.7 0.3 1.6 0 4.1-0.9 7.7-2.6 3.5-1.7 5.6-3.2 6.1-4.6 0.6-1.4 0.9-4.9 0.9-10.6 0-12.9-3.4-22.6-10.2-28.9-5.9-5.7-15.6-9.8-29.3-12.3-3.6 12.9-13.8 19.4-30.6 19.4-5.5 0-10.9-3.3-16.3-9.9-5.4-6.6-8.2-12.6-8.2-18 0-8.4 3.5-15.3 10.5-20.8-5.7-5.9-8.5-11.9-8.5-18 0-5.7 1.8-10.7 5.3-15 3.5-4.3 8.1-6.8 13.8-7.5-0.4-7.2 1.9-12.3 7.1-15-2.5-2.5-3.7-6.9-3.7-13.3 0-7.5 2.5-13.7 7.5-18.7 5-5 11.2-7.5 18.7-7.5 8.2 0 14.9 2.9 20.1 8.5 6.6-22.5 20.8-33.7 42.5-33.7 11.3 0 21.3 4.5 29.9 13.6 3.2 3.4 4.8 5.2 4.8 5.4-2.7 0-1.3-0.5 4.1-1.5 5.4-1 9.4-1.5 11.9-1.5 8.8 0 16.7 3.3 23.5 9.9 5.9 5.9 10 13.4 12.3 22.5 1.6 0.2 4.1 0.9 7.5 2 5 2.5 7.5 6.8 7.5 12.9 0 1.1-0.9 3.3-2.7 6.5 14.5 8.2 21.8 19.5 21.8 34 0 4.1-1.6 9.8-4.8 17 5.9 3.4 8.9 8.4 8.9 15zm-140.2 15v-4.4c0-5.2-2.5-10-7.6-14.3-5.1-4.3-10.3-6.5-15.5-6.5-6.4 0-12.3 1.5-17.7 4.4 12-0.7 25.6 6.2 40.8 20.8zm-6.1-42.2c-3.4-3.9-6.3-7.8-8.8-11.9-9.5 2.5-14.3 5.3-14.3 8.5 2.7-0.2 6.7 0.3 11.9 1.5 5.2 1.3 9 1.9 11.2 1.9zm20.8-10.6v-15c-5.5-0.9-8.8-1.4-9.9-1.4v5.1l9.9 11.2zm44.2-9.5c-2.7-1.1-7.8-3.4-15.3-6.8v29.3c10.7-6.1 15.8-13.6 15.3-22.5zm18.7 40.2-7.5-9.2c-4.5 3.2-9.1 6.4-13.8 9.7-4.6 3.3-8.7 7-12.1 11.1 10.2-5.5 21.3-9.3 33.3-11.6z" fill="#0d0f0f"/></g></svg>
