<svg xmlns:svg="http://www.w3.org/2000/svg" xmlns="http://www.w3.org/2000/svg" version="1.1" width="600" height="600"><style>.s0{fill:#0d0f0f;}</style><g transform="translate(-719.14839,181.07282)"><path d="m1231.2-93.3c54.3 54.3 87.9 129.3 87.9 212.2 0 165.7-134.3 300-300 300-82.8 0-157.8-33.6-212.1-87.9" fill="#e49977"/><path d="m807 331.1c-54.3-54.3-87.9-129.3-87.9-212.1 0-165.7 134.3-300 300-300 82.8 0 157.8 33.6 212.1 87.8" fill="#cac5c0"/><path d="m1248.9 265.6c-10.3 24.6-30.8 36.9-61.4 36.9-5.6 0-11.7 0.7-18.3 2.1-9.8 2.1-14.7 5-14.7 8.8 0 1.2 0.8 2.5 2.5 4 1.6 1.5 3 2.3 4.2 2.3-5.9 0-1.9 0.2 11.9 0.5 13.8 0.4 22.5 0.5 26 0.5-20.4 11.9-54.4 17.4-102.2 16.5-15.7-0.2-29.1-7.1-40.4-20.7-11-12.9-16.5-27.2-16.5-43.2 0-16.8 5.7-31.2 17-43 11.3-11.8 25.5-17.7 42.3-17.7 3.7 0 8.7 0.8 14.9 2.5 6.2 1.6 10.4 2.5 12.5 2.5 8.7 0 19.4-3.6 32.3-10.7 12.9-7.1 19-10.7 18.3-10.7-2.3 24.6-10.5 41.1-24.6 49.5-10.1 5.9-15.1 11.6-15.1 17.2 0 3.5 2.1 6.3 6.3 8.4 3.3 1.6 6.9 2.5 10.9 2.5 6.1 0 12-3.7 17.9-11.2 5.8-7.5 8.4-14.3 7.7-20.4-0.7-7-0.2-15.4 1.4-25.3 0.5-2.8 2.2-6.3 5.1-10.4 2.9-4.1 5.6-6.6 7.9-7.5 0 2.1-0.8 5.6-2.3 10.5-1.5 4.9-2.3 8.6-2.3 10.9 0 5.1 1.4 9.1 4.2 11.9 4.2-1.6 7.9-6.9 11.2-15.8 2.8-6.8 4.4-13.3 4.9-19.7-9.8-0.5-19.3-4.9-28.3-13.3-9-8.4-13.5-17.6-13.5-27.4 0-1.6 0.2-3.3 0.7-4.9 1.4 2.1 3.5 5.4 6.3 9.8 4 5.9 7 8.8 9.1 8.8 2.8 0 4.2-2.9 4.2-8.8 0-7.5-2-14.3-6-20.4-4.5-7.3-10.2-10.9-17.2-10.9-3.3 0-8.2 1.7-14.7 5.3-6.6 3.5-12.5 5.3-17.9 5.3-1.6 0-8.9-2.1-21.8-6.3 22.7-3.7 34.1-7.1 34.1-10.2 0-7.9-15.6-13.3-46.7-16.1-3-0.2-8.7-0.7-16.9-1.4 0.9-1.2 7.6-2.4 20-3.9 10.5-1.2 17.9-1.7 22.1-1.7 55.7 0 91.1 27 106 81.1 2.6-2.1 3.9-5.7 3.9-10.7 0-6.4-1.9-14.5-5.6-24.2-1.4-3.8-3.6-9.5-6.7-17.1 19.2 24.5 28.8 47.6 28.8 69.5 0 11.5-2.7 22-8.1 31.4-3.5 6.3-10.1 14.4-19.7 24.3-9.6 9.9-16.1 17.5-19.7 22.9 12.9-3.5 21.3-6.2 25.3-8.1 8.9-4 17-9.9 24.2-17.9 0 3-1.3 7.6-3.9 13.7zm-153.1-138c0 4.2-2.3 6.9-7 8.1l-9.1 1.4c-3.3 1.6-8.1 8.1-14.4 19.3-0.7-3.5-1.8-8.4-3.2-14.7-2.1 0.2-5.6 2.1-10.5 5.6-2.1 1.6-5.5 4.1-10.2 7.4 1.4-8.4 6.1-17 14.1-25.6 8.4-9.6 16.6-14.4 24.6-14.4 10.5 0 15.8 4.3 15.8 13zm61.1 32.3c0 4-2.2 7.3-6.5 10-4.3 2.7-8.6 4-12.8 4-5.6 0-10.7-3.2-15.1-9.5-5.4-7.7-10.9-12.8-16.5-15.1 1.2-1.2 2.6-1.8 4.2-1.8 2.1 0 5.7 1.6 10.7 4.9 5 3.3 8.3 4.9 9.7 4.9 1.2 0 3.1-1.6 5.8-4.9 2.7-3.3 5.7-4.9 9-4.9 7.7 0 11.6 4.1 11.6 12.3zM981 68.5l-17.2 58.1H820.9v-12.4c6.9-7.7 22.2-23.3 45.6-46.8 14.1-14.1 28.2-29.1 42-44.9 6.9-7.7 12.3-14.4 16-20 8.3-12 12.4-24.3 12.4-36.8 0-12.3-3.8-23.1-11.4-32.4-7.6-9.4-17.4-14-29.4-14-25.9 0-46.2 17.5-60.8 52.5l-12.8-4.8c17.3-49.1 44.7-73.7 82.1-73.7 18.4 0 34.1 6.3 47 18.8 13 12.5 19.4 28 19.4 46.4 0 23.5-13.5 46.4-40.4 68.9l-28 23.2c-17.9 15-32.7 29-44.4 42-0.8 0.8-2.4 2.7-4.8 5.6h74.5c11.5 0 20.2-2.3 26-6.8 5.1-4 10-11.6 14.8-22.8l12.4 0 0 0z" fill="#0d0f0f"/></g></svg>
