<svg xmlns:svg="http://www.w3.org/2000/svg" xmlns="http://www.w3.org/2000/svg" version="1.1" width="600" height="600"><style>.s0{fill:#0d0f0f;}</style><g transform="translate(-390.57696,9.64424)"><path d="m902.7 78.2c54.3 54.3 87.9 129.3 87.9 212.2 0 165.7-134.3 300-300 300-82.8 0-157.8-33.6-212.1-87.9" fill="#c1d7e9"/><path d="m478.5 502.5c-54.3-54.3-87.9-129.3-87.9-212.1 0-165.7 134.3-300 300-300 82.8 0 157.8 33.6 212.1 87.8" fill="#cac5c0"/><path d="m850.9 492.4c-16.2 16.4-36 24.6-59.7 24.6-26.5 0-47.6-9.1-63.1-27.2-14.7-17.3-22.1-39.3-22.1-66.2 0-28.8 12.5-61.7 37.6-98.6 20.5-30.3 44.5-56.8 72.2-79.6-4 18.5-6.1 31.6-6.1 39.4 0 17.9 5.6 35.3 16.9 52.3 13.8 20.2 24.4 35.2 31.6 45 11.2 17 16.9 33.6 16.9 49.7 0 23.9-8.1 44.1-24.2 60.5zm-0.4-92.3c-4.3-9.7-9.4-16.1-15.1-19.2 0.9 1.7 1.3 4.2 1.3 7.4 0 6.1-1.7 14.7-5.2 25.9l-5.6 17.3c0 10.1 5 15.1 15.1 15.1 10.7 0 16-7.1 16-21.2 0-7.2-2.2-15.6-6.5-25.3zM652.5 239.9l-17.2 58.1H492.3v-12.4c6.9-7.7 22.2-23.3 45.6-46.8 14.1-14.1 28.2-29.1 42-44.9 6.9-7.7 12.3-14.4 16-20 8.3-12 12.4-24.3 12.4-36.8 0-12.3-3.8-23.1-11.4-32.4-7.6-9.4-17.4-14-29.4-14-25.9 0-46.2 17.5-60.8 52.5l-12.8-4.8c17.3-49.1 44.7-73.7 82.1-73.7 18.4 0 34.1 6.3 47 18.8 13 12.5 19.4 28 19.4 46.4 0 23.5-13.5 46.4-40.4 68.9l-28 23.2c-17.9 15-32.7 29-44.4 42-0.8 0.8-2.4 2.7-4.8 5.6h74.5c11.5 0 20.2-2.3 26-6.8 5.1-4 10-11.6 14.8-22.8l12.4 0 0 0z" fill="#0d0f0f"/></g></svg>
