<svg xmlns:svg="http://www.w3.org/2000/svg" xmlns="http://www.w3.org/2000/svg" version="1.1" width="600" height="600"><style>.s0{fill:#0d0f0f;}</style><g transform="translate(-687.71982,323.92996)"><path d="m1199.8-236.1c54.3 54.3 87.9 129.3 87.9 212.2 0 165.7-134.3 300-300 300-82.8 0-157.8-33.6-212.1-87.9" fill="#f8f6d8"/><path d="M775.6 188.2C721.3 133.9 687.7 58.9 687.7-23.9c0-165.7 134.3-300 300-300 82.8 0 157.8 33.6 212.1 87.8" fill="#cac5c0"/><path d="m949.6-74.4-17.2 58.1H789.5v-12.4c6.9-7.7 22.2-23.3 45.6-46.8 14.1-14.2 28.2-29.1 42-44.9 6.9-7.7 12.3-14.4 16-20 8.3-12 12.4-24.3 12.4-36.8 0-12.3-3.8-23.1-11.4-32.4-7.6-9.4-17.4-14-29.4-14-25.9 0-46.2 17.5-60.8 52.5l-12.8-4.8c17.3-49.1 44.7-73.6 82.1-73.6 18.4 0 34.1 6.3 47 18.8 13 12.6 19.4 28 19.4 46.4 0 23.5-13.5 46.4-40.4 68.9l-28 23.2c-17.9 15-32.7 29-44.4 42-0.8 0.8-2.4 2.7-4.8 5.6h74.5c11.5 0 20.2-2.3 26-6.8 5.1-4 10-11.6 14.8-22.8h12.4l0 0zM1215.7 114.7c-14.6-13.6-24.3-20.9-29.1-22.1-3.5-0.8-6.8 1.2-10 6-3.2 4.8-7.8 6.6-13.6 5.1-2.4-0.6-7-2.6-14-6.1-5.6 5.3-8.6 8.8-9.1 10.5-0.6 2.4 0.5 5.6 3.3 9.7 2.8 4.1 5.4 6.4 7.8 7 1.5 0.4 3.7 0.5 6.5 0.5 2.8 0 4.7 0.1 5.6 0.3 2.7 0.6 2.8 5.8 0.5 15.6-2.2 9.3-7.8 23.1-16.8 41.4-0.3-23.5-3.7-35.9-9.9-37.4-0.9-0.2-2.8 0-5.8 0.7-3 0.6-5.2 0.8-6.5 0.5-6.3-1.5-10.5-8.6-12.8-21.3-10.3-0.9-16.5 3-18.6 11.7-1 4.4 0.1 8.3 3.5 11.9 3.4 3.6 4.9 5.9 4.7 7-1.4 5.9-12.1 12.8-32.1 20.8-10.7 4.3-18 7.4-22.1 9.1 3.9-3.2 8.2-7.5 12.8-13.1 5.2-6.3 8.2-11.4 9.2-15.4 0.5-2.2-1.3-5.8-5.3-10.9-4.1-5.1-5.6-9.8-4.5-14.1 0.9-3.7 3.3-7.9 7.2-12.7-2-3.9-5-6.4-8.9-7.3-8.7-2.1-13.7-0.3-15 5.3 0.9-3.9 0.2-1-2.1 8.8-1.5 7.2-7.8 9.5-18.8 6.8-8.5-2-22.2-7.4-41.2-16 23.9-0.2 36.7-4 38.5-11.4-0.2 0.9 0-1.8 0.6-8.1 0.7-6.9 7-11.9 18.7-14.8 0.4-10.4-3.6-16.7-12-18.7-1.3-0.3-4.2 1.4-8.8 5.1-4.6 3.7-8.4 5.2-11.4 4.5-5.2-1.2-10.6-8.5-16.1-21.7-2.6-6.6-6.5-16.3-11.9-29.3 4.4 3.8 8.7 7.6 13.1 11.4 5.8 4.6 10.6 7.4 14.5 8.3 3 0.7 6.6-1.2 10.8-5.8 4.2-4.6 8.7-6.3 13.4-5.2 0.7 0.2 4.7 2.5 12.1 7 5.6-5.3 8.8-9.5 9.5-12.5 0.6-2.6-0.2-6-2.6-10.1-2.3-4.1-4.8-6.5-7.4-7.1-1.1-0.3-2.8-0.3-5.3-0.2-2.4 0.1-4.2 0-5.3-0.2-3.9-0.9-4.7-6.3-2.4-16 0.6-2.6 6.7-16.9 18.1-42.7-1 3.2-1 9.6-0.1 19.2 1.1 11.7 4.1 18.2 9.1 19.4 0.9 0.2 2.7 0 5.7-0.7 2.9-0.7 5.1-0.8 6.6-0.5 5 1.2 8.4 5 10.3 11.4l2.8 9.9c4.5 1.1 8.7 0.4 12.5-2.1 3.8-2.5 6.3-6.1 7.4-10.6 1.1-4.8 0-8.9-3.4-12.3-3.4-3.5-5-5.8-4.6-7.1 1.1-4.6 10.1-10.5 27-17.9 13.6-5.9 22.3-9.2 26.1-9.9-12.3 10.4-19.2 18.4-20.6 24.3-0.7 3 0.3 6.7 3.2 11.1 3.6 5.2 5.5 8.8 5.7 10.6 1 5.5-0.9 12.3-5.5 20.3 4.9 5.5 8.8 8.6 11.9 9.4 6.3 1.5 10.2-1 11.7-7.5 0.2-0.7 0.4-2.8 0.7-6.4 0.3-3.6 0.6-5.6 0.9-6 1.6-2.8 7.9-2.9 19-0.3 6.9 1.7 20.9 7.1 41.8 16.2-5.1 0.2-12.7 0.4-22.9 0.7-9.3 0.5-14.3 2.4-15.1 5.7-0.4 1.5-0.4 4.2-0.2 8.2 0.2 3.9 0.1 6.8-0.3 8.5-0.7 3-3.3 5.4-7.9 7.1l-12.9 5.2c1.5 5.4 2.5 8.6 3.2 9.7 1.6 3.1 4.2 5.1 7.8 6 2.6 0.6 5.5-1.1 8.8-5.1 3.3-4 7.3-5.5 12-4.3 5.9 1.4 11.2 8.4 15.9 21 2.7 7.1 6.9 17.8 12.6 32.2zm-67.6-36.1c3.3-13.9 1.1-27.1-6.6-39.7-7.8-12.6-18.6-20.6-32.4-23.9-14.1-3.4-27.4-1.2-40 6.4-12.6 7.6-20.7 18.5-24.3 32.5-3.5 13.8-1.3 27 6.8 39.6 8.1 12.6 19.1 20.6 33 23.9 14.7 3.5 28.2 1.6 40.4-5.6 12.2-7.3 19.9-18.3 23.2-33.1zm-4.9-1.2c-3.2 13.2-10.2 23.1-21.2 29.6-11 6.5-23.1 8.2-36.3 5.1-12.8-3.1-22.7-10.1-29.6-21.2-7-11.1-8.9-23-5.9-35.8 3-12.6 10.2-22.3 21.6-29.1 11.4-6.8 23.3-8.7 35.9-5.7 12.6 3 22.4 10.2 29.4 21.5 7 11.3 9.1 23.1 6.1 35.5z" fill="#0d0f0f"/></g></svg>
