<svg xmlns:svg="http://www.w3.org/2000/svg" xmlns="http://www.w3.org/2000/svg" version="1.1" width="600" height="600"><g transform="translate(-147.7198,-44.642407)"><g transform="matrix(6,0,0,6,3927.7198,1304.6544)"><circle cx="-580" cy="-160" r="50" fill="#cac5c0"/></g><path d="m385.1 360-12.1-22.6 8-4.8c31-18.9 59.4-38 85.1-57.4 25.7-19.4 38.6-41.5 38.6-66.3 0-16.7-6.2-30.7-18.5-42-12.4-11.4-26.8-17-43.5-17-38.6 0-79.4 24-122.4 71.9l-20.1-15.4c44.7-67.9 99.4-101.8 164-101.8 28.5 0 52.8 7 72.7 21 22.6 15.6 33.9 36.9 33.9 63.9 0 19.4-8.1 38.2-24.2 56.6-9.2 10.8-25.4 24.8-48.5 42l-9.7 7.3c4.3-0.5 9.4-0.8 15.4-0.8 29.6 0 54 11.3 73.1 33.9 19.1 22.6 28.7 49 28.7 79.2 0 51.2-21.6 94-64.6 128.5-39.9 32.3-85.9 48.5-138.2 48.5-47.9 0-85.7-10.5-113.1-31.5l14.6-20.2c32.3 15.6 61.7 23.4 88.1 23.4 38.2 0 72.3-12.7 102.2-38 29.9-25.3 44.9-56.8 44.9-94.5 0-24.8-7.5-45.9-22.6-63.5-15.1-17.5-34.8-26.2-59-26.2-22.1 0-46.3 8.6-72.7 25.9z" fill="#0d0f0f"/></g></svg>