<svg xmlns:svg="http://www.w3.org/2000/svg" xmlns="http://www.w3.org/2000/svg" version="1.1" width="600" height="600"><g transform="translate(-364.8627,226.78619)"><g transform="matrix(6,0,0,6,3514.8627,1033.2258)"><circle cx="-475" cy="-160" r="50" fill="#cac5c0"/></g><path d="m750.5 177.4v40.3c0 46.1 16.2 69.1 48.6 69.1h14v26.4H617.1V286.9h15.6c31.8 0 47.8-22.8 47.8-68.4V177.4H483.7v-41.2L691.2-166.8h59.3v309.6h4.9c20.3 0 35.1-15.6 44.4-46.9h24.7l-11.5 81.5-62.5 0 0 0zM680.5 142.8V-106L513.1 142.8h167.4z" fill="#0d0f0f"/></g></svg>
