<svg xmlns:svg="http://www.w3.org/2000/svg" xmlns="http://www.w3.org/2000/svg" version="1.1" width="600" height="600"><g transform="translate(-399.1484,149.64339)"><g transform="matrix(6,0,0,6,2919.1484,1110.3686)"><circle cx="-370" cy="-160" r="50" fill="#cac5c0"/></g><path d="m608.9-81.5h173.6c22.5 0 35.9-2.7 40.2-8.1h24.9l-14.5 65.5H621.3l-20.4 94.7c30.8-12.4 58-18.6 81.7-18.6 46.4 0 85.5 15.5 117.4 46.5 31.8 31 47.8 69.7 47.8 116.1 0 54-20.8 97.4-62.4 130.3-38.3 30.2-85 45.3-140 45.3-32.4 0-64-4.8-94.7-14.6l9.7-24.3c25.9 7 48.8 10.5 68.8 10.5 39.9 0 74.9-13.1 104.8-39.3 29.9-26.1 44.9-59 44.9-98.4 0-34-11.1-61.9-33.2-83.8-22.1-21.9-50.2-32.8-84.2-32.8-31.3 0-60.4 10.8-87.4 32.4l-16.2-3.2 51-218.5z" fill="#0d0f0f"/></g></svg>
