<svg xmlns:svg="http://www.w3.org/2000/svg" xmlns="http://www.w3.org/2000/svg" version="1.1" width="600" height="600"><g transform="translate(-104.8627,-7.4995066)"><g transform="matrix(6,0,0,6,1994.8627,1267.5115)"><circle cx="-265" cy="-160" r="50" fill="#cac5c0"/></g><path d="m324.3 275.6c35.6-33.5 71.5-50.2 107.6-50.2 39.4 0 71 15.6 94.7 46.9 22.1 28.6 33.2 63.1 33.2 103.6 0 44.3-12.9 83.1-38.9 116.5-28.6 36.7-64.2 55-106.8 55-51.3 0-92.3-22.1-123-66.4-27.5-38.9-41.3-85-41.3-138.4 0-56.6 15.6-108.8 46.9-156.6 31.3-47.7 73.1-81.6 125.4-101.6 29.7-11.3 61-17 93.9-17v25.1c-70.1 3.8-122.5 31.8-157 84.2-17.7 27-29.4 59.9-34.8 98.8zm-4.9 48.6c-0.5 9.7-0.8 19.4-0.8 29.1 0 37.2 6.5 71.8 19.4 103.6 16.7 41.5 41.3 62.3 73.7 62.3 28 0 49.1-14.3 63.1-42.9 10.8-22.1 16.2-48.8 16.2-80.1 0-33.4-5.1-62.1-15.4-85.8-14-32.4-35.6-48.6-64.8-48.6-35.6 0-66.1 20.8-91.5 62.3z" fill="#0d0f0f"/></g></svg>
