<svg xmlns:svg="http://www.w3.org/2000/svg" xmlns="http://www.w3.org/2000/svg" version="1.1" width="600" height="600"><g transform="translate(-296.2912,795.35763)"><g transform="matrix(6,0,0,6,1556.2912,464.65436)"><circle cx="-160" cy="-160" r="50" fill="#cac5c0"/></g><path d="m617.3-255.3h-69.9v-7.4c0-44.4 14-100 41.9-166.8 42.2-100.8 81.1-178 116.7-231.7l4.9-7.4H547.4c-23.6 0-41.5 4.9-53.8 14.8-12.4 9.9-21.5 26.3-27.5 49.3h-27.1l29.6-130.7h17.3c10.4 5.5 28.5 8.2 54.2 8.2h213.7v37c-7.6 11-17.5 28.5-29.6 52.6-23 44.9-44.1 97.2-63.3 157-28.5 88.2-43 163.3-43.5 225.2z" fill="#0d0f0f"/></g></svg>
