<svg xmlns:svg="http://www.w3.org/2000/svg" xmlns="http://www.w3.org/2000/svg" version="1.1" width="600" height="600"><g transform="translate(-38.29125,238.21479)"><g transform="matrix(6,0,0,6,668.29125,1021.7972)"><circle cx="-55" cy="-160" r="50" fill="#cac5c0"/></g><path d="M284.1 58.6 273.6 51.3C242.9 30.3 222.7 13.3 213 0.4 200.6-15.8 194.4-34.6 194.4-56.2c0-36.6 15.3-66.5 46.1-89.7 28.5-21.5 61.7-32.3 99.4-32.3 35.5 0 67.1 9.4 94.5 28.3 31.2 21 46.9 48.8 46.9 83.3 0 42-29.4 76-88.1 101.8 66.8 32.3 100.2 77.3 100.2 135 0 41.5-15.9 74.3-47.7 98.6-28.5 22.1-64.4 33.1-107.5 33.1-40.4 0-75.1-10.2-104.3-30.7-33.4-23.1-50.1-53.9-50.1-92.1 0-38.2 17.8-69.8 53.3-94.6 9.7-6.4 25.3-15.1 46.9-25.8zm27.4 11.5c-48.5 22.1-72.7 56.8-72.7 104.2 0 30.7 9.8 55.3 29.5 73.9 19.7 18.6 44.8 27.9 75.6 27.9 27.4 0 50.8-7.4 69.9-22.2 19.1-14.8 28.7-35.3 28.7-61.7 0-39.8-26.2-72-78.6-96.7L311.5 70zm54.2-47.8c42.5-18.8 63.8-47.1 63.8-84.8 0-25.9-9-46.6-27.1-62.3-18.1-15.6-40.3-23.4-66.7-23.4-22.1 0-41.2 5.9-57.4 17.8-17.8 12.9-26.7 30.2-26.7 51.7 0 26.4 12.4 47.7 37.2 63.9 4.8 3.2 26.4 13.7 64.7 31.5l12.1 5.7z" fill="#0d0f0f"/></g></svg>
