<svg xmlns:svg="http://www.w3.org/2000/svg" xmlns="http://www.w3.org/2000/svg" version="1.1" width="600" height="600"><g transform="translate(-30.57696,21.071893)"><g transform="matrix(6,0,0,6,30.57696,1238.9401)"><circle cx="50" cy="-160" r="50" fill="#cac5c0"/></g><path d="m411 312.1c-35.5 33.4-71.4 50.1-107.5 50.1-39.3 0-70.9-15.6-94.5-46.9-22.1-28.5-33.1-63-33.1-103.4 0-43.6 12.9-82.7 38.8-117.2 28-37.2 63.3-55.8 105.9-55.8 51.7 0 92.9 22.4 123.6 67.1 27.5 39.3 41.2 85.9 41.2 139.8 0 76.5-25.3 141-75.9 193.5-50.6 52.5-114 79-189.9 79.6v-25c23.2-1.1 41.7-3.8 55.8-8.1 77.5-23.7 122.8-81.6 135.7-173.7zm4.9-48.5c0.5-10.2 0.8-19.9 0.8-29.1 0-37.7-6.4-72.2-19.4-103.4C380 89.6 355.3 68.8 322.9 68.8c-28.1 0-48.7 14.3-62.2 42.8-10.8 22.1-16.1 48.8-16.1 80 0 33.4 5.1 61.9 15.4 85.6 14 32.3 35.6 48.5 64.7 48.5 35.5 0 65.9-20.7 91.3-62.2z" fill="#0d0f0f"/></g></svg>
