<svg xmlns:svg="http://www.w3.org/2000/svg" xmlns="http://www.w3.org/2000/svg" version="1.1" width="600" height="600"><style>.s0{fill:#fff;}</style><g transform="translate(-70.576066,118.21478)"><circle cx="50" cy="50" r="50" transform="matrix(5.99994,0,0,6,70.576066,-118.21478)" fill="#c9c4be"/><polygon points="25 93.3 33.5 89.2 37.8 89.2 40.2 85.1 50 98.9 59.8 85.1 62.2 89.2 66.5 89.2 75 93.3 75.7 83.9 77.8 80.1 75.5 76 92.3 74.4 85.3 59.1 90 59.1 92.2 55.3 100 50 92.2 44.7 90 41 85.3 41 92.3 25.6 75.5 24 77.8 19.9 75.7 16.1 75 6.7 66.5 10.8 62.2 10.8 59.8 14.9 50 1.1 40.2 14.9 37.8 10.8 33.5 10.8 25 6.7 24.3 16.1 22.2 19.9 24.5 24 7.7 25.6 14.7 41 10 41 7.8 44.7 0 50 7.8 55.3 10 59.1 14.7 59.1 7.7 74.4 24.5 76 22.2 80.1 24.3 83.9 " transform="matrix(5.99994,0,0,6,70.576066,-118.21478)" fill="#0d0f0f"/><polygon points="68.6 86.3 72.1 84.3 72.1 80.2 68.6 78.2 55.1 52.9 83.7 52 87.2 54 90.7 52 90.7 48 87.2 46 83.7 48 55.1 47.1 68.6 21.8 72.1 19.8 72.1 15.7 68.6 13.7 65.1 15.7 65.1 19.8 50 44.1 34.9 19.8 34.9 15.7 31.4 13.7 27.9 15.7 27.9 19.8 31.4 21.8 44.9 47.1 16.3 48 12.8 46 9.3 48 9.3 52 12.8 54 16.3 52 44.9 52.9 31.4 78.2 27.9 80.2 27.9 84.3 31.4 86.3 34.9 84.3 34.9 80.2 50 55.9 65.1 80.2 65.1 84.3 " transform="matrix(5.99994,0,0,6,70.576066,-118.21478)" fill="#fff"/><polygon points="57.1 22.4 50 34.7 43 22.4 50 10.1 " transform="matrix(5.99994,0,0,6,70.576066,-118.21478)" fill="#fff"/><polygon points="29.6 30.1 36.7 42.3 22.6 42.3 15.5 30.1 " transform="matrix(5.99994,0,0,6,70.576066,-118.21478)" fill="#fff"/><polygon points="22.6 57.7 36.7 57.7 29.6 69.9 15.4 69.9 " transform="matrix(5.99994,0,0,6,70.576066,-118.21478)" fill="#fff"/><polygon points="42.9 77.6 50 65.3 57.1 77.6 50 89.9 " transform="matrix(5.99994,0,0,6,70.576066,-118.21478)" fill="#fff"/><polygon points="70.4 69.9 63.3 57.7 77.4 57.7 84.6 69.9 " transform="matrix(5.99994,0,0,6,70.576066,-118.21478)" fill="#fff"/><polygon points="77.4 42.3 63.3 42.3 70.4 30.1 84.6 30.1 " transform="matrix(5.99994,0,0,6,70.576066,-118.21478)" fill="#fff"/></g></svg>