<svg xmlns:svg="http://www.w3.org/2000/svg" xmlns="http://www.w3.org/2000/svg" version="1.1" width="600" height="600"><g transform="translate(-2.0055,38.21478)"><g transform="matrix(6,0,0,6,5042.0055,-38.21478)"><path d="M-740 50C-740 77.6-762.4 100-790 100-817.6 100-840 77.6-840 50-840 22.4-817.6 0-790 0c27.6 0 50 22.4 50 50z" fill="#cac5c0"/></g><g transform="matrix(6,0,0,6,5042.0055,-38.21478)"><path d="m-783.4 80v-3.3c4.7-0.5 7.1-1.9 7.1-4.1 0-1.6-0.6-3.2-1.9-4.7l-13-16-10.3 12.1c-2.6 3-3.9 5.4-3.9 7.4 0 3 2.4 4.8 7.1 5.4V80h-25.1v-3.3c3.2-0.6 5.9-1.8 8.1-3.4 1.5-1.2 3.6-3.4 6.3-6.4l15.4-17.9-17.9-21.7c-2.3-2.8-4.1-4.6-5.4-5.5-1.7-1.2-4.1-2-7.2-2.4V16h29.5v3.3c-4.5 0.9-6.7 2.2-6.7 4.1 0 1.2 0.6 2.6 1.8 4.1l11.8 14.3 9.5-11.7c1.7-2.1 2.6-3.9 2.6-5.5 0-2.6-2.1-4.3-6.3-5.1V16h23.5v3.3c-2.1 0.4-3.5 0.8-4.2 1.2-2.6 1.2-6.5 4.9-11.8 10.9-0.9 1-4.5 5.4-10.8 13.3l19 23.4c4.1 5.1 8.3 8 12.6 8.7V80h-29.9z" fill="#0d0f0f"/></g></g></svg>
